<svg xmlns="http://www.w3.org/2000/svg" height="48" viewBox="0 -960 960 960" width="48"><path d="M725.491-231.462q27.003 0 45.14-18.141 18.138-18.141 18.138-44.942 0-26.801-18.111-44.782-18.111-17.981-44.868-17.981-27.175 0-45.021 18.094t-17.846 44.827q0 26.733 17.991 44.829t44.577 18.096Zm.061 125.847q31.069 0 58.566-14.481 27.497-14.481 45.497-39.868-24.846-13.959-50.652-22.132-25.807-8.173-53.066-8.173-27.259 0-53.603 8.052-26.343 8.053-49.563 21.794 15.956 25.961 43.855 40.385 27.898 14.423 58.966 14.423Zm.056 28.269q-63.715 0-108.469-45.406-44.755-45.405-44.755-107.846 0-64.876 44.737-109.543t108.972-44.667q63.215 0 108.1 44.66 44.884 44.659 44.884 109.535 0 62.44-44.877 107.854-44.877 45.413-108.592 45.413ZM316.115-620h328.654q5.791 0 10.222-4.427 4.432-4.428 4.432-10.885t-4.432-10.669q-4.431-4.212-10.222-4.212H316.115q-6.807 0-11.173 4.494-4.365 4.494-4.365 10.376 0 6.9 4.365 11.111Q309.308-620 316.115-620ZM215.846-161.154q-22.012 0-38.41-16.397-16.398-16.398-16.398-38.41v-528.193q0-22.012 16.398-38.41 16.398-16.398 38.41-16.398h528.308q22.012 0 38.41 16.398 16.398 16.398 16.398 38.41v233.808q0 12.433-9.539 20.024-9.538 7.591-21.269 4.514-10.846-1.538-21.509-2.942-10.662-1.404-20.414-1.404-21.712 0-42.606 3.744-20.894 3.743-41.125 9.564v-4.616q.371-5.32-4.378-9.506-4.75-4.186-10.397-4.186h-311.61q-6.807 0-11.173 4.494-4.365 4.494-4.365 10.376 0 6.899 4.365 11.111 4.366 4.212 11.173 4.212h294.424q-39.21 20.996-68.586 52.863-29.376 31.867-47.068 71.983h-178.77q-6.807 0-11.173 4.493-4.365 4.494-4.365 10.376 0 6.9 4.365 11.112 4.366 4.211 11.173 4.211h165.539q-5.423 17.867-7.635 36.769-2.211 18.901-2.211 38.121 0 9.231.308 20.67.307 11.44 2.73 23.171 1.693 11.336-5.488 20.687-7.181 9.351-18.281 9.351H215.846Z"/></svg>