<svg xmlns="http://www.w3.org/2000/svg" height="48" viewBox="0 -960 960 960" width="48"><path d="M444-485 322.917-152.801Q323-153 319-145l-27.976 25.8Q280-110 266.1-113.643 252.2-117.286 251-133l-5-35.731q0 1 1-10.269l126-344q14 16 32.5 25.5T444-485Zm36.235-18q-55.735 0-95.485-39.644T345-638.208q0-46.232 27-83.012t69-47.18V-821q0-15.925 11.553-27.463Q464.105-860 480.053-860 496-860 508-848.463q12 11.538 12 27.463v52.6q41 10.4 68 47.18t27 83.012q0 55.92-39.515 95.564Q535.971-503 480.235-503Zm-.112-80q22.427 0 38.652-16.348T535-638.123q0-22.427-16.348-39.152T479.877-694q-22.427 0-38.652 16.63T425-637.895q0 22.42 16.348 38.657Q457.696-583 480.123-583ZM514-484q20-3 39-12.5t33-25.5l127.044 343.134q1.956 4.304-.044 10.178l-4.4 35.938q-1.04 15.179-14.82 18.964Q680-110 669.732-118.85L642-145q-5-4-5-8L514-484Z"/></svg>