<svg xmlns="http://www.w3.org/2000/svg" height="48" viewBox="0 -960 960 960" width="48"><path d="M478.462-121.154q-72.924 0-138.275-28.219t-113.973-77.033q-48.622-48.815-76.841-114.358-28.219-65.544-28.219-139.488 0-75.171 29.099-140.637t79.192-113.904q50.093-48.438 117.055-76.246 66.961-27.807 143.073-27.807 70.332 0 133.216 23.002 62.883 23.002 110.869 64.293 47.985 41.291 76.587 98.633 28.601 57.341 28.601 124.556 0 89.446-50.022 145.346-50.023 55.901-144.523 55.901h-70.955q-30.154 0-51.538 21.268-21.385 21.267-21.385 51.127 0 27.514 14.885 43.655 14.885 16.142 14.885 37.796 0 17.5-14.539 34.808-14.539 17.307-37.192 17.307Zm-224.273-345.5q14.011 0 24.565-10.473 10.554-10.473 10.554-24.485 0-14.011-10.474-24.565-10.473-10.554-24.484-10.554-14.012 0-24.565 10.474-10.554 10.473-10.554 24.484 0 14.011 10.473 24.565 10.473 10.554 24.485 10.554Zm122.807-164.384q14.012 0 24.566-10.474 10.553-10.473 10.553-24.484 0-14.012-10.473-24.566-10.473-10.553-24.485-10.553-14.011 0-24.565 10.473-10.554 10.473-10.554 24.485 0 14.011 10.474 24.565 10.473 10.554 24.484 10.554Zm205.962 0q14.011 0 24.565-10.474 10.554-10.473 10.554-24.484 0-14.012-10.473-24.566-10.474-10.553-24.485-10.553t-24.565 10.473Q548-680.169 548-666.157q0 14.011 10.473 24.565 10.474 10.554 24.485 10.554Zm124.615 164.384q14.012 0 24.566-10.473 10.553-10.473 10.553-24.485 0-14.011-10.473-24.565-10.473-10.554-24.485-10.554-14.011 0-24.565 10.474-10.554 10.473-10.554 24.484 0 14.011 10.474 24.565 10.473 10.554 24.484 10.554Z"/></svg>