<svg xmlns="http://www.w3.org/2000/svg" height="48" viewBox="0 -960 960 960" width="48"><path d="M201.038-191.231v-360.961q0-13.558 5.202-24.597 5.202-11.038 17.029-19.096l224.154-170.038q13.78-11.116 32.294-11.116 18.514 0 32.86 11.116l224.154 170.038q11.827 8.058 17.029 19.096 5.202 11.039 5.202 24.597v360.961q0 12.212-8.991 21.202-8.99 8.991-21.202 8.991H580q-12.058 0-19.51-7.894-7.451-7.895-7.451-19.952V-389q0-11.173-7.895-19.067-7.894-7.894-19.952-7.894h-90.384q-12.058 0-19.51 7.894-7.452 7.894-7.452 19.067v200.116q0 12.057-7.894 19.952-7.894 7.894-19.952 7.894H231.231q-12.212 0-21.202-8.991-8.991-8.99-8.991-21.202Z"/></svg>